<?xml version="1.0" encoding="UTF-8" standalone="no"?>
<svg xmlns="http://www.w3.org/2000/svg" viewBox="0 0 32 32">
  <!-- Circular background -->
  <circle cx="16" cy="16" r="15" fill="#223344" stroke="#AABBCC" stroke-width="1" />
  
  <!-- Treasure map icon -->
  <g transform="translate(7, 7) scale(0.56)">
    <!-- Map scroll -->
    <path d="M4,4 L24,4 L28,8 L28,28 L4,28 Z" fill="#D2B48C" stroke="#000" stroke-width="1" />
    
    <!-- Scroll curls -->
    <path d="M4,4 C2,4 2,6 4,6 L4,28 C2,28 2,30 4,30" fill="none" stroke="#000" stroke-width="1" />
    <path d="M28,8 C30,8 30,10 28,10 L28,28 C30,28 30,30 28,30" fill="none" stroke="#000" stroke-width="1" />
    
    <!-- X marks the spot -->
    <path d="M10,14 L22,26 M10,26 L22,14" stroke="#A52A2A" stroke-width="2" stroke-linecap="round" />
    
    <!-- Compass rose -->
    <circle cx="16" cy="16" r="2" fill="#A52A2A" stroke="#000" stroke-width="0.5" />
    <path d="M16,10 L16,22 M10,16 L22,16" stroke="#A52A2A" stroke-width="1" />
  </g>
  
  <!-- Shine effect -->
  <circle cx="24" cy="8" r="3" fill="white" opacity="0.3" />
</svg>
